<?xml version="1.0" encoding="UTF-8" standalone="no"?>
<!-- Created with Inkscape (http://www.inkscape.org/) -->

<svg
   xmlns:dc="http://purl.org/dc/elements/1.1/"
   xmlns:cc="http://creativecommons.org/ns#"
   xmlns:rdf="http://www.w3.org/1999/02/22-rdf-syntax-ns#"
   xmlns:svg="http://www.w3.org/2000/svg"
   xmlns="http://www.w3.org/2000/svg"
   xmlns:xlink="http://www.w3.org/1999/xlink"
   xmlns:sodipodi="http://sodipodi.sourceforge.net/DTD/sodipodi-0.dtd"
   xmlns:inkscape="http://www.inkscape.org/namespaces/inkscape"
   width="600"
   height="400"
   id="svg3270"
   version="1.1"
   inkscape:version="0.48.5 r10040"
   inkscape:export-filename="/home/alumno/Dropbox/huayra/huayra-update/muestra.png"
   inkscape:export-xdpi="90"
   inkscape:export-ydpi="90"
   sodipodi:docname="huayra-about-background.svg">
  <defs
     id="defs3272">
    <linearGradient
       id="linearGradient4293">
      <stop
         id="stop4295"
         offset="0"
         style="stop-color:#ffc59e;stop-opacity:1;" />
      <stop
         id="stop4297"
         offset="1"
         style="stop-color:#ffc39b;stop-opacity:1;" />
    </linearGradient>
    <linearGradient
       id="linearGradient4301"
       inkscape:collect="always">
      <stop
         id="stop4303"
         offset="0"
         style="stop-color:#f8ab76;stop-opacity:1;" />
      <stop
         id="stop4305"
         offset="1"
         style="stop-color:#f8ab76;stop-opacity:0;" />
    </linearGradient>
    <linearGradient
       inkscape:collect="always"
       xlink:href="#linearGradient4301"
       id="linearGradient3251"
       gradientUnits="userSpaceOnUse"
       gradientTransform="translate(-1770.4224,481.81929)"
       x1="76.733047"
       y1="146.72034"
       x2="570.01697"
       y2="146.72034" />
    <linearGradient
       inkscape:collect="always"
       xlink:href="#linearGradient4293"
       id="linearGradient3254"
       gradientUnits="userSpaceOnUse"
       gradientTransform="matrix(0.93131914,0,0,1.1188012,-819.78202,-714.80232)"
       x1="3.3728814"
       y1="211.6483"
       x2="647.5932"
       y2="211.6483" />
  </defs>
  <sodipodi:namedview
     id="base"
     pagecolor="#ffffff"
     bordercolor="#666666"
     borderopacity="1.0"
     inkscape:pageopacity="0.0"
     inkscape:pageshadow="2"
     inkscape:zoom="1.1782723"
     inkscape:cx="457.83225"
     inkscape:cy="214.7966"
     inkscape:document-units="px"
     inkscape:current-layer="layer1"
     showgrid="false"
     fit-margin-top="0"
     fit-margin-left="0"
     fit-margin-right="0"
     fit-margin-bottom="0"
     inkscape:window-width="1433"
     inkscape:window-height="846"
     inkscape:window-x="0"
     inkscape:window-y="25"
     inkscape:window-maximized="1"
     showguides="true"
     inkscape:guide-bbox="true">
    <sodipodi:guide
       orientation="1,0"
       position="0,443.79002"
       id="guide3087" />
    <sodipodi:guide
       orientation="0,1"
       position="1242.4121,-931.13526"
       id="guide3089" />
    <sodipodi:guide
       orientation="1,0"
       position="599.99046,399.72796"
       id="guide3039" />
    <sodipodi:guide
       orientation="0,1"
       position="601.46263,399.99989"
       id="guide3041" />
    <sodipodi:guide
       orientation="0,1"
       position="286.25807,0"
       id="guide3043" />
  </sodipodi:namedview>
  <metadata
     id="metadata3275">
    <rdf:RDF>
      <cc:Work
         rdf:about="">
        <dc:format>image/svg+xml</dc:format>
        <dc:type
           rdf:resource="http://purl.org/dc/dcmitype/StillImage" />
        <dc:title />
      </cc:Work>
    </rdf:RDF>
  </metadata>
  <g
     inkscape:label="Capa 1"
     inkscape:groupmode="layer"
     id="layer1"
     transform="translate(816.64074,678.01013)"
     style="display:inline">
    <rect
       style="opacity:0.66799999;fill:url(#linearGradient3254);fill-opacity:1;stroke:#000000;stroke-width:0;stroke-miterlimit:4;stroke-opacity:1;stroke-dasharray:none;stroke-dashoffset:0"
       id="rect3515"
       width="599.97467"
       height="399.99988"
       x="-816.64075"
       y="-678.01001" />
    <path
       style="fill:#ff7f2a;fill-opacity:1;fill-rule:evenodd"
       inkscape:connector-curvature="0"
       id="path3998"
       d="m -525.32342,-575.15628 0.56839,1.3405 0.19884,0.5705 0,0 0,0.1996 2.10276,-1.7398 2.10285,-0.7702 1.90383,-0.5704 1.90384,0.1997 1.90392,0.3707 1.7333,0.7702 1.53446,1.3405 1.1366,1.3406 0.96616,1.5402 0.76723,1.7399 0.19893,1.9111 -0.19893,1.911 -0.5683,1.911 -1.33553,1.7399 -1.73339,1.7399 -2.30169,1.5402 0.56839,1.141 -0.19893,0 0.36937,0.7701 0.19893,0.1996 0,0 1.1366,2.1107 1.53446,2.1107 2.10277,2.51 2.50061,2.8808 2.87,2.8808 3.43829,3.4513 3.83607,3.4513 4.20552,4.0502 -5.73998,-6.931 -2.67106,-3.2802 -2.50054,-3.2801 -2.30169,-3.2801 -2.10276,-3.0805 -1.73339,-3.2801 -1.13661,-3.2801 0.36946,-0.3708 1.73331,1.5402 2.10276,1.7399 2.67106,1.7399 3.26785,1.911 3.83607,2.1107 4.40445,2.1107 4.77383,2.3103 5.37066,2.5101 -7.27445,-4.6208 -3.63727,-2.3103 -3.26776,-2.3103 -3.26785,-2.3104 -2.87,-2.3104 -2.50053,-2.5099 -2.30169,-2.6812 2.10276,0.9698 2.67106,0.9698 3.06892,0.9697 3.63723,0.7701 4.20552,0.7702 4.6033,0.7701 5.17169,0.7701 5.74002,0.9698 -8.24056,-2.3104 -7.6723,-2.3103 -3.4383,-1.1409 -3.43829,-1.3406 -3.06892,-1.5402 -2.87,-1.7399 2.50062,0.1996 2.67107,-0.1996 3.26784,-0.1997 3.4383,-0.3708 4.035,-0.5705 4.20552,-0.5704 4.77383,-0.7701 5.37065,-0.9698 -9.17828,0.3708 -8.41109,0.1996 -4.03508,0 -3.83607,-0.3707 -3.63722,-0.7702 -3.43829,-0.9698 2.30169,-0.3707 2.67106,-0.9698 3.06884,-1.3406 3.26785,-1.7399 3.83619,-1.911 4.2054,-2.51 4.60342,-2.6812 4.97276,-3.2801 -7.47329,3.4513 -7.27449,3.2801 -3.43829,1.3406 -3.4383,0.9697 -3.43829,0.9698 -3.26785,0.5705 1.73339,-1.7399 1.90383,-1.911 2.10276,-2.5101 2.30169,-2.6811 2.30174,-3.2801 2.67102,-3.4513 2.67106,-4.0502 3.06884,-4.2214 -5.93883,6.5317 -2.86999,3.0805 -2.87,3.0804 -2.86999,2.6812 -2.86999,2.51 -2.86999,2.1107 -3.06884,1.7399 1.1366,-2.1107 0.96616,-2.6812 0.96608,-3.0804 0.96616,-3.6509 0.76723,-4.0503 0.96616,-4.6207 0.96607,-5.1911 0.96616,-5.562 -2.50062,8.4428 -1.33553,4.0502 -1.33553,3.8506 -1.33554,3.6509 -1.53446,3.4513 -1.7333,3.0804 -2.10276,2.8809 0,-2.5101 -0.19893,-2.6811 -0.56831,-3.2801 -0.76723,-3.651 -0.96615,-4.0502 -1.13669,-4.421 -1.53438,-5.1912 -1.53446,-5.3908 1.33553,8.6424 1.13669,8.2716 0.36937,4.0503 0.19885,3.6509 -0.19885,3.6509 -0.5683,3.4513 -0.19893,0 -0.76723,-2.1107 -1.13669,-2.51 -1.7333,-2.8808 -2.10276,-3.2801 -2.50062,-3.4513 -2.87004,-3.8506 -3.43838,-4.421 -3.63722,-4.7919 4.20561,7.1022 3.83607,6.5318 1.73339,3.2801 1.5345,3.2801 1.33553,3.0805 0.96616,3.2801 -1.53446,-1.9111 -1.73343,-2.1106 -2.30169,-2.3104 -2.50054,-2.51 -2.86999,-2.6811 -3.26785,-2.8808 -3.63722,-3.0805 -3.83607,-3.4513 5.93883,6.3321 3.06892,3.0805 2.67106,3.0804 2.67115,2.8808 2.30169,3.0805 1.90384,2.8808 1.53446,3.0805 0,0.1996 0,0 z m 18.38509,4.2213 0,-0.1996 0,0.1996 0,0 0,0 z"
       class="fil3" />
    <polygon
       style="fill:#ff7f2a;fill-opacity:1;fill-rule:evenodd"
       id="polygon4000"
       points="10619,3426 10660,3412 10666,3446 10457,3486 10249,3554 10033,3628 9817,3722 9602,3830 9386,3951 9170,4093 8961,4248 8961,4248 9103,4133 9244,4025 9386,3931 9527,3850 9662,3776 9797,3709 9918,3655 10040,3608 10154,3560 10255,3527 10356,3500 10437,3473 10511,3453 10572,3439 "
       class="fil3"
       transform="matrix(0.02841573,0,0,0.02852283,-821.5291,-664.97478)" />
    <polygon
       style="fill:#ff7f2a;fill-opacity:1;fill-rule:nonzero"
       id="polygon4002"
       points="9015,4106 9103,4079 9197,4039 9258,4012 9319,3985 9319,3985 9265,4025 9224,4066 9150,4140 9096,4201 9042,4248 8975,4281 8921,4308 8867,4315 8847,4315 8833,4302 8827,4288 8827,4268 8833,4248 8847,4227 8894,4187 8948,4140 "
       class="fil4"
       transform="matrix(0.02841573,0,0,0.02852283,-821.5291,-664.97478)" />
    <path
       style="fill:#ff7f2a;fill-opacity:1;fill-rule:evenodd"
       inkscape:connector-curvature="0"
       id="path4004"
       d="m -471.70287,-603.59358 -6.30829,5.9613 -5.93883,5.5619 -5.17168,4.7919 -4.77383,4.2213 -4.40446,3.651 -3.83615,2.8808 -3.43829,2.3103 -3.06884,1.7399 -1.73339,-0.5705 4.77379,-2.51 4.77382,-2.8808 4.60343,-3.6509 4.60329,-3.8506 4.60339,-4.2213 4.97275,-4.4211 4.97276,-4.6207 5.37053,-4.4211 0,0 z m -80.81446,-11.5232 5.93891,6.7313 5.1716,5.9613 4.60343,5.562 4.20552,4.7918 3.4383,4.4211 2.87008,4.0502 2.10276,3.6509 1.7333,3.0805 -0.76714,1.7399 -2.10285,-4.9915 -2.86999,-4.7918 -3.4383,-4.7919 -3.83615,-4.6207 -4.03512,-4.7918 -4.20552,-4.9915 -4.40438,-5.3909 -4.40445,-5.5619 0,0 z m 14.35,-6.9311 4.035,7.8723 3.63723,7.1022 3.26785,6.3321 2.86999,5.7616 2.30169,5.1911 1.90383,4.4211 1.33562,4.0502 0.96608,3.4513 -1.13661,1.5402 -0.36933,-2.6811 -0.56843,-2.6812 -1.7333,-5.3908 -2.30169,-5.3908 -2.50062,-5.562 -2.87,-5.5619 -3.06892,-5.9613 -2.86999,-5.9612 -2.86999,-6.5318 0,0 z m 24.69334,-4.0502 0.19893,4.421 0.19893,4.2214 0,4.2214 0,3.8505 0.19884,3.651 0,3.4512 0,3.4513 -0.19884,3.0805 0,2.8808 -0.19893,2.6811 -0.36946,4.9915 -0.36937,4.0503 -0.76723,3.4512 -1.73327,0.9698 1.53434,-5.3908 0.76723,-5.3908 0.56843,-5.9613 0,-5.9613 0,-6.3321 0,-6.5317 0,-6.931 0.1988,-6.9311 0,0 z m 23.92606,7.3018 -1.90384,4.2214 -1.7333,3.8506 -1.73339,3.8506 -1.5345,3.4512 -3.06892,6.5318 -2.87,5.7616 -2.50053,4.9915 -2.50062,4.2213 -2.30161,3.4513 -2.10276,2.8808 -1.90392,0 3.63722,-4.0502 3.26785,-4.6207 2.86991,-4.9915 2.67115,-5.562 2.67106,-5.5619 2.67107,-5.9613 3.06892,-6.1609 3.26776,-6.3321 0,0 z m 29.29663,35.1687 -4.20552,1.5402 -4.03501,1.5402 -7.47337,2.6812 -6.90499,2.3103 -5.93891,1.9111 -5.54106,1.7399 -4.60342,1.1409 -4.20553,0.7701 -3.43829,0.3708 -1.33553,-1.1409 2.67106,-0.1997 2.67115,-0.1996 5.54105,-0.9698 5.54106,-1.3406 5.93883,-1.7399 5.93896,-2.1107 6.13776,-2.1107 6.50721,-2.3103 6.70615,-1.9111 0,0 z m -2.10277,39.39 -4.40445,-1.3405 -4.035,-1.3406 -4.03508,-1.3406 -3.63722,-1.1409 -3.4383,-1.3406 -3.26776,-1.1409 -3.06896,-0.9698 -3.0688,-1.1409 -2.67106,-0.9698 -2.50066,-1.1409 -4.40446,-1.911 -3.83606,-1.911 -2.87,-1.7399 -0.36945,-1.9111 4.40445,3.0805 4.97275,2.6811 5.37053,2.5101 5.54119,2.1106 5.93883,1.9111 6.30828,2.1107 6.30829,2.3103 6.70614,2.6812 0,0 z m -11.87774,17.1137 -6.90507,-5.3908 -6.30829,-4.9915 -5.54105,-4.421 -4.97276,-4.0503 -4.20557,-3.8505 -3.63722,-3.2802 -2.86999,-3.0804 -2.10277,-2.6812 0.36946,-1.911 3.06884,4.421 3.63722,4.2214 4.4045,4.0502 4.60338,3.8506 4.77382,4.0503 5.17169,4.0502 5.37053,4.2214 5.17168,4.7918 0,0 z m 16.08327,-35.7391 -4.6033,-0.1996 -4.20561,0 -4.20552,0 -3.83607,-0.1997 -3.63722,0 -3.4383,0 -3.43829,-0.1997 -3.06892,-0.1996 -2.87,-0.1997 -2.67106,-0.1996 -4.77383,-0.5705 -4.20552,-0.5705 -3.4383,-0.9697 -0.76723,-1.7399 5.1716,1.7399 5.54106,1.1409 5.73999,0.5704 5.93891,0.3708 6.30829,0.1997 6.70614,0.1996 6.70606,0.1997 7.07552,0.5705 0,0 z"
       class="fil3" />
    <path
       inkscape:connector-curvature="0"
       style="fill:#ff7f2a;fill-rule:nonzero"
       d="m -652.85336,-515.57214 2.10277,0.96979 1.90383,1.34057 1.93232,1.34057 1.90383,1.54023 3.06892,3.65093 1.33554,2.1107 1.165,2.31033 0.93767,2.31035 0.76723,2.68115 0.56839,2.90933 0.39778,2.8808 -1.93224,0 -1.90383,0 -4.40446,0 -0.36946,-3.85058 -0.96607,-3.45125 -1.53446,-3.28013 -1.90384,-2.68115 -2.69955,-2.31036 -3.06883,-1.54022 -3.43829,-1.16943 -2.10277,-0.17115 -2.10288,-0.19965 -2.10264,0.19965 -1.93236,0.37081 -1.70487,0.57044 -1.73343,0.96978 -3.06892,2.11069 -2.3016,2.51001 -1.90392,3.08048 -1.33554,3.05193 -0.76723,2.90933 -0.19884,2.8808 -3.06892,-0.19965 -1.13661,0 -1.13668,0 -0.76723,0 -0.5967,0 -0.36938,0 -0.19893,0 0,-38.44874 0,0 7.27445,0 0,0.1996 0,0.3708 0,0.7701 0,0.9698 0,1.1409 0,1.3691 0,3.05196 0,3.08046 0,3.28014 0,2.8808 0,1.14091 0,0.96978 1.165,-0.77011 1.33553,-0.96979 1.53446,-1.14091 1.90384,-1.16942 2.30169,-0.94126 2.87,-0.77012 3.43828,-0.39932 4.23398,-0.17114 2.10276,0.17114 2.30169,0.39932 2.10276,0.3708 z"
       id="polygon3986" />
    <polygon
       style="fill:#ff7f2a;fill-rule:nonzero"
       id="polygon3988"
       points="8288,5555 8254,5636 8213,5723 8153,5804 8085,5878 7998,5946 7897,6000 7769,6040 7627,6074 7465,6081 7297,6074 7156,6040 7034,6000 6926,5939 6839,5872 6771,5798 6711,5717 6670,5636 6630,5555 6610,5474 6589,5400 6583,5333 6576,5272 6576,5232 6576,5198 6576,5191 6576,5191 6899,5198 6899,5205 6893,5225 6893,5252 6899,5292 6899,5346 6913,5393 6926,5454 6947,5515 6974,5575 7007,5629 7054,5683 7108,5730 7176,5777 7250,5811 7344,5831 7452,5845 7553,5838 7647,5818 7728,5791 7796,5750 7850,5697 7897,5643 7930,5589 7964,5521 7984,5461 7998,5407 8011,5346 8011,5299 8018,5258 8018,5225 8018,5205 8018,5191 8341,5198 8341,5205 8341,5232 8341,5279 8341,5333 8328,5400 8315,5474 "
       class="fil2"
       transform="matrix(0.02841573,0,0,0.02852283,-819.285,-664.71778)" />
    <polygon
       style="fill:#ff7f2a;fill-rule:nonzero"
       id="polygon3990"
       points="8618,5865 8631,5791 8651,5710 8685,5629 8732,5548 8786,5467 8860,5393 8948,5326 9049,5265 9170,5225 9312,5198 9480,5184 9642,5198 9784,5225 9912,5272 10013,5326 10100,5393 10174,5467 10228,5548 10275,5629 10309,5717 10336,5798 10350,5872 10363,5939 10370,5993 10370,6040 10370,6067 10370,6074 10370,6074 10046,6074 10046,6067 10046,6047 10046,6013 10046,5973 10040,5926 10033,5872 10019,5811 9999,5757 9972,5697 9932,5636 9891,5582 9837,5535 9770,5494 9689,5461 9602,5434 9494,5427 9386,5434 9292,5447 9218,5481 9150,5521 9089,5568 9049,5622 9009,5683 8982,5744 8961,5804 8948,5865 8934,5919 8928,5973 8928,6013 8928,6047 8928,6067 8928,6074 8598,6074 8598,6060 8598,6033 8598,5986 8604,5932 "
       class="fil2"
       transform="matrix(0.02841573,0,0,0.02852283,-821.5291,-664.97478)" />
    <polygon
       style="fill:#ff7f2a;fill-rule:nonzero"
       id="polygon3992"
       points="14851,5784 14871,5703 14905,5622 14952,5542 15006,5461 15080,5387 15168,5319 15269,5265 15390,5218 15532,5191 15700,5184 15862,5191 16003,5218 16131,5265 16232,5319 16320,5387 16394,5461 16448,5542 16495,5629 16529,5710 16556,5791 16569,5865 16583,5932 16590,5986 16590,6033 16590,6060 16590,6074 16590,6074 16266,6067 16266,6060 16266,6040 16266,6006 16266,5966 16259,5919 16253,5865 16239,5811 16219,5750 16192,5690 16152,5629 16111,5575 16057,5528 15990,5488 15909,5454 15821,5427 15714,5420 15606,5427 15511,5440 15437,5474 15370,5515 15309,5562 15269,5616 15228,5676 15201,5737 15181,5798 15161,5858 15154,5912 15147,5966 15147,6006 15147,6040 15147,6060 15147,6067 14817,6067 14817,6054 14817,6027 14817,5986 14824,5926 14831,5858 "
       class="fil2"
       transform="matrix(0.02841573,0,0,0.02852283,-822.67079,-664.51638)" />
    <polygon
       style="fill:#ff7f2a;fill-rule:nonzero"
       id="polygon3994"
       points="10963,5299 10996,5427 11050,5535 11118,5629 11212,5710 11320,5771 11441,5804 11515,5818 11589,5818 11664,5818 11731,5798 11792,5777 11852,5750 11960,5676 12041,5582 12108,5481 12156,5373 12182,5265 12189,5171 12297,5171 12337,5171 12378,5171 12405,5171 12425,5171 12439,5171 12445,5171 12445,6519 12445,6519 12189,6519 12189,6519 12189,6498 12189,6471 12189,6438 12189,6397 12189,6357 12189,6249 12189,6135 12189,6027 12189,5926 12189,5885 12189,5845 12149,5878 12102,5912 12048,5953 11980,5986 11899,6020 11798,6047 11677,6067 11529,6074 11455,6067 11374,6054 11300,6033 11226,6006 11151,5973 11077,5932 11017,5885 10949,5831 10842,5703 10794,5629 10754,5548 10720,5461 10693,5373 10673,5272 10660,5171 10727,5171 10794,5171 10949,5171 "
       class="fil2"
       transform="matrix(0.02841573,0,0,0.02852283,-822.67079,-664.51638)" />
    <polygon
       style="fill:#ff7f2a;fill-rule:nonzero"
       id="polygon3996"
       points="14521,5184 14554,5184 14575,5184 14588,5184 14608,5184 14608,5184 14608,5184 14608,5420 14602,5420 14588,5420 14568,5420 14541,5420 14507,5420 14467,5420 14413,5420 14359,5420 14231,5420 14076,5420 13901,5420 13705,5420 13611,5427 13523,5447 13449,5481 13389,5521 13335,5568 13288,5629 13247,5683 13220,5750 13173,5872 13160,5926 13153,5973 13146,6020 13139,6054 13139,6074 13139,6081 12816,6074 12816,6067 12816,6040 12816,5993 12829,5939 12836,5872 12856,5791 12883,5710 12924,5629 12964,5548 13025,5467 13099,5393 13180,5319 13281,5265 13402,5218 13537,5191 13692,5184 13847,5184 13988,5184 14110,5184 14211,5184 14298,5184 14373,5184 14433,5184 14487,5184 "
       class="fil2"
       transform="matrix(0.02841573,0,0,0.02852283,-822.67079,-664.51638)" />
    <polygon
       style="fill:#ff9955;fill-rule:nonzero"
       id="polygon4006"
       points="15902,5878 15902,5878 15895,5919 15889,5953 15848,6013 15788,6054 15754,6060 15714,6067 15680,6060 15639,6054 15585,6013 15545,5953 15532,5919 15532,5878 15532,5838 15545,5804 15585,5744 15639,5703 15680,5697 15714,5690 15754,5697 15788,5703 15848,5744 15889,5804 15895,5838 "
       class="fil5"
       transform="matrix(0.02841573,0,0,0.02852283,-822.67079,-664.51638)" />
    <polygon
       style="fill:#ff9955;fill-rule:nonzero"
       id="polygon4008"
       points="9676,5851 9676,5892 9676,5892 9676,5932 9662,5966 9622,6027 9561,6067 9527,6074 9494,6081 9453,6074 9420,6067 9359,6027 9319,5966 9312,5932 9305,5892 9312,5851 9319,5818 9359,5757 9420,5717 9453,5710 9494,5703 9527,5710 9561,5717 9622,5757 9662,5818 "
       class="fil5"
       transform="matrix(0.02841573,0,0,0.02852283,-821.5291,-664.97478)" />
    <polygon
       style="fill:#ff9955;fill-opacity:1;fill-rule:nonzero"
       id="polygon4010"
       points="10808,3311 10848,3372 10862,3405 10862,3439 10862,3439 10862,3480 10848,3513 10808,3574 10754,3614 10713,3628 10680,3628 10639,3628 10606,3614 10545,3574 10505,3513 10498,3480 10491,3439 10498,3405 10505,3372 10545,3311 10606,3271 10639,3257 10680,3257 10713,3257 10754,3271 "
       class="fil5"
       transform="matrix(0.02841573,0,0,0.02852283,-821.5291,-664.97478)" />
    <path
       style="fill:#ff9955;fill-rule:evenodd"
       inkscape:connector-curvature="0"
       id="path4012"
       d="m -577.19873,-467.39379 -0.78496,0 -0.92238,0.25608 -0.92239,0.39398 -0.92251,0.53189 -0.78495,0.78797 -0.6672,0.92586 -0.39261,1.20165 -0.1373,1.45776 0.1373,1.31983 0.39261,1.20167 0.52977,0.92586 0.78509,0.78797 0.78496,0.53189 0.92238,0.39397 0.92238,0.13792 0.92247,0.13787 1.31486,-0.13787 1.05981,-0.394 0,0.13789 -0.13743,1.31986 -0.13742,0.53188 -0.25505,0.53188 -0.39257,0.53187 -0.66724,0.39397 -0.78496,0.2561 -0.92247,0 -1.4522,-0.1379 -1.0598,-0.25607 -0.52991,-0.1379 -0.78496,1.98961 0.39248,0.13791 1.98219,0.66978 1.72705,0.13788 1.58962,-0.13788 1.1971,-0.39399 1.05981,-0.53189 0.78496,-0.78796 0.5299,-0.92587 0.25518,-0.92587 0.25506,-0.92586 0,-0.92586 0,-10.7558 -1.9821,0 -0.13743,0.39398 -0.92238,-0.39398 -0.78496,-0.13789 -0.66732,-0.13789 -0.39248,0 z m 0.13742,2.2654 0.92238,0.13791 1.19715,0.25609 0,5.57489 -0.78509,0.39397 -1.05968,0 -0.78508,0 -0.6672,-0.2561 -0.92243,-0.66976 -0.6672,-1.06376 -0.13742,-1.31984 0.13742,-1.20166 0.6672,-0.92587 0.92243,-0.66977 1.1971,-0.2561 z"
       class="fil6" />
    <polygon
       style="fill:#ff9955;fill-rule:evenodd"
       id="polygon4014"
       points="5747,7091 5653,7091 5653,7624 5788,7624 5788,7233 5808,7226 5841,7213 5875,7206 5909,7199 5943,7206 5970,7213 5990,7226 6003,7240 6017,7280 6017,7314 6017,7624 6151,7624 6151,7307 6145,7226 6131,7186 6118,7152 6091,7125 6057,7098 6010,7085 5949,7078 5916,7078 5875,7085 5821,7105 5761,7125 "
       class="fil6"
       transform="matrix(0.01962528,0,0,0.01969925,-675.16816,-606.82518)" />
    <polygon
       style="fill:#ff9955;fill-rule:evenodd"
       id="polygon4016"
       points="6778,7509 6758,7502 6738,7489 6724,7475 6711,7435 6711,7408 6711,7091 6576,7091 6576,7408 6583,7489 6589,7529 6610,7563 6637,7590 6670,7617 6717,7630 6778,7637 6812,7637 6859,7624 6906,7610 6967,7590 6980,7624 7081,7624 7081,7091 6947,7091 6947,7482 6920,7489 6893,7502 6819,7509 "
       class="fil6"
       transform="matrix(0.01962528,0,0,0.01969925,-675.16816,-606.82518)" />
    <polygon
       style="fill:#ff9955;fill-rule:evenodd"
       id="polygon4018"
       points="8618,7630 8638,7630 8658,7624 8678,7617 8699,7610 8699,7509 8665,7516 8631,7523 8591,7516 8571,7496 8564,7475 8564,7442 8564,6856 8429,6856 8429,7509 8436,7563 8456,7604 8496,7630 8544,7637 8584,7637 "
       class="fil6"
       transform="matrix(0.01962528,0,0,0.01969925,-675.16816,-606.82518)" />
    <polygon
       style="fill:#ff9955;fill-rule:evenodd"
       id="polygon4020"
       points="9494,7624 9629,7624 9629,7091 9494,7091 "
       class="fil6"
       transform="matrix(0.01962528,0,0,0.01969925,-675.16816,-606.82518)" />
    <polygon
       style="fill:#ff9955;fill-rule:evenodd"
       id="polygon4022"
       points="10929,7091 10835,7091 10835,7624 10970,7624 10970,7233 10990,7226 11023,7213 11057,7206 11098,7199 11131,7206 11151,7213 11172,7226 11185,7240 11199,7280 11199,7314 11199,7624 11333,7624 11333,7307 11327,7226 11313,7186 11300,7152 11273,7125 11239,7098 11192,7085 11138,7078 11098,7078 11057,7085 11003,7105 10943,7125 "
       class="fil6"
       transform="matrix(0.01962528,0,0,0.01969925,-675.16816,-606.82518)" />
    <polygon
       style="fill:#ff9955;fill-rule:evenodd"
       id="polygon4024"
       points="13038,7489 13018,7469 13005,7455 12991,7435 12991,7395 12998,7368 13099,7064 12971,7024 12877,7327 12856,7401 12850,7442 12856,7482 12870,7523 12897,7556 12937,7583 12991,7604 13025,7617 13072,7624 13126,7624 13187,7624 13193,7657 13288,7691 13456,7179 13328,7139 13207,7516 13173,7516 13146,7516 13072,7502 "
       class="fil6"
       transform="matrix(0.01962528,0,0,0.01969925,-675.16816,-606.82518)" />
    <polygon
       style="fill:#ff9955;fill-rule:evenodd"
       id="polygon4026"
       points="16259,7752 16307,7422 16650,7381 16542,7273 16307,7314 16340,7071 16232,6957 16185,7300 15855,7334 15956,7442 16185,7408 16152,7637 "
       class="fil6"
       transform="matrix(0.01962528,0,0,0.01969925,-684.77011,-604.42469)" />
    <polygon
       style="fill:#ff9955;fill-rule:evenodd"
       id="polygon4028"
       points="7890,7307 7890,7435 7567,7435 7567,7307 "
       class="fil6"
       transform="matrix(0.01962528,0,0,0.01969925,-675.16816,-606.82518)" />
    <path
       style="fill:#ff9955;stroke:none"
       d="m -815.81474,-432.21095 52.03311,-86.21982 92.50345,239.5916 -145.36256,0.82904 z"
       id="path3517"
       inkscape:connector-curvature="0" />
    <path
       style="opacity:0.46000001;fill:#ffe6d5;stroke:none"
       d="m -806.35536,-309.45395 23.95179,-43.10991 158.57733,64.66487 z"
       id="path3519"
       inkscape:connector-curvature="0" />
    <path
       style="opacity:0.21740005;fill:#2ad4ff;stroke:none"
       d="m -260.26698,-568.16279 -38.81844,90.36499 62.77026,-63.00679 z"
       id="path3521"
       inkscape:connector-curvature="0" />
    <path
       style="fill:#ff9955;stroke:none"
       d="m -246.2263,-460.38804 -30.55915,-51.40027 44.5999,29.01628 z"
       id="path3523"
       inkscape:connector-curvature="0" />
    <path
       style="opacity:0.21740005;fill:#2ad4ff;stroke:none"
       d="m -278.08494,-300.37065 55.55506,-53.47753 -65.58098,27.35707 z"
       id="path3521-7"
       inkscape:connector-curvature="0" />
    <path
       style="fill:#ff9955;stroke:none"
       d="m -316.37024,-338.31928 -58.21368,12.9798 41.45161,-33.39018 z"
       id="path3523-2"
       inkscape:connector-curvature="0" />
    <g
       id="g4406"
       transform="matrix(0.97948723,0,0,0.98317911,-888.18076,-743.77598)">
      <path
         class="fil3"
         d="m 367.18999,164.94046 0.58023,1.3635 0.20307,0.58023 0,0 0,0.20307 2.14682,-1.76965 2.14681,-0.7833 1.94373,-0.58021 1.94375,0.20308 1.94372,0.37713 1.76967,0.7833 1.56658,1.36351 1.16044,1.3635 0.98637,1.56658 0.78328,1.76966 0.20308,1.94373 -0.20308,1.94374 -0.5802,1.94371 -1.36351,1.76966 -1.76966,1.76967 -2.34988,1.56658 0.58021,1.16043 -0.20308,0 0.37715,0.7833 0.20308,0.20308 0,0 1.16043,2.14679 1.56658,2.1468 2.14681,2.55296 2.55294,2.93009 2.9301,2.93009 3.51032,3.51031 3.91646,3.51032 4.2936,4.11953 -5.8602,-7.04962 -2.72701,-3.33626 -2.55296,-3.33624 -2.34988,-3.33625 -2.14679,-3.13316 -1.76967,-3.33626 -1.16043,-3.33624 0.37715,-0.37713 1.76967,1.56658 2.14679,1.76966 2.72701,1.76965 3.33626,1.94374 3.91646,2.1468 4.49665,2.14679 4.87384,2.34988 5.48305,2.55296 -7.42678,-4.69976 -3.71339,-2.34987 -3.33623,-2.34988 -3.33626,-2.34988 -2.93009,-2.34988 -2.55295,-2.55294 -2.34989,-2.72703 2.14681,0.98637 2.72702,0.98638 3.13318,0.98635 3.71338,0.7833 4.2936,0.7833 4.69975,0.78328 5.27998,0.7833 5.86018,0.98636 -8.41313,-2.34986 -7.83293,-2.34988 -3.51031,-1.16044 -3.51032,-1.3635 -3.13316,-1.56659 -2.93011,-1.76967 2.55296,0.20307 2.72703,-0.20307 3.33624,-0.20307 3.51031,-0.37714 4.11954,-0.58022 4.2936,-0.58021 4.87382,-0.7833 5.48304,-0.98637 -9.37049,0.37715 -8.58721,0.20307 -4.11954,0 -3.91646,-0.37713 -3.71337,-0.7833 -3.51031,-0.98638 2.34986,-0.37713 2.72703,-0.98637 3.13316,-1.36351 3.33624,-1.76966 3.91647,-1.94371 4.29359,-2.55296 4.69976,-2.72703 5.0769,-3.33624 -7.62985,3.51032 -7.42676,3.33624 -3.51031,1.3635 -3.51032,0.98638 -3.5103,0.98635 -3.33625,0.58023 1.76966,-1.76966 1.94373,-1.94373 2.14679,-2.55296 2.34988,-2.72701 2.34988,-3.33624 2.72701,-3.51031 2.72702,-4.11954 3.13316,-4.2936 -6.06325,6.64348 -2.93009,3.13317 -2.93011,3.13316 -2.93007,2.72703 -2.9301,2.55294 -2.93009,2.14681 -3.13317,1.76967 1.16044,-2.14681 0.98635,-2.72703 0.98638,-3.13316 0.98637,-3.71339 0.78328,-4.11954 0.98638,-4.69975 0.98635,-5.27997 0.98638,-5.65712 -2.55296,8.58721 -1.3635,4.11954 -1.36351,3.91647 -1.36351,3.71338 -1.5666,3.51032 -1.76965,3.13316 -2.14681,2.93009 0,-2.55296 -0.20306,-2.72701 -0.58022,-3.33624 -0.7833,-3.71339 -0.98636,-4.11954 -1.16047,-4.49667 -1.56658,-5.27998 -1.5666,-5.48305 1.36353,8.79028 1.16045,8.41316 0.37713,4.11952 0.20307,3.71339 -0.20307,3.71339 -0.58022,3.51031 -0.20308,0 -0.7833,-2.14681 -1.16043,-2.55295 -1.76966,-2.93009 -2.14684,-3.33624 -2.55296,-3.51031 -2.93012,-3.91647 -3.51033,-4.49667 -3.71341,-4.87382 4.29363,7.22368 3.91649,6.6435 1.76967,3.33624 1.5666,3.33624 1.3635,3.13318 0.9864,3.33624 -1.5666,-1.94374 -1.76968,-2.14679 -2.34989,-2.34988 -2.55298,-2.55295 -2.9301,-2.72702 -3.33626,-2.93009 -3.71339,-3.13318 -3.91646,-3.5103 6.06327,6.44041 3.13316,3.13316 2.72703,3.13317 2.72704,2.9301 2.34989,3.13317 1.94375,2.93008 1.5666,3.13319 0,0.20307 0,0 z m 18.77007,4.29361 0,-0.20307 0,0.20307 0,0 0,0 z"
         id="path3998-8"
         inkscape:connector-curvature="0"
         style="fill:#ffffff;fill-opacity:1;fill-rule:evenodd" />
      <polygon
         transform="matrix(0.02901082,0,0,0.02901082,64.781033,73.585374)"
         class="fil3"
         points="9817,3722 9602,3830 9386,3951 9170,4093 8961,4248 8961,4248 9103,4133 9244,4025 9386,3931 9527,3850 9662,3776 9797,3709 9918,3655 10040,3608 10154,3560 10255,3527 10356,3500 10437,3473 10511,3453 10572,3439 10619,3426 10660,3412 10666,3446 10457,3486 10249,3554 10033,3628 "
         id="polygon4000-4"
         style="fill:#ffffff;fill-opacity:1;fill-rule:evenodd" />
      <polygon
         transform="matrix(0.02901082,0,0,0.02901082,64.781033,73.585374)"
         class="fil4"
         points="9265,4025 9224,4066 9150,4140 9096,4201 9042,4248 8975,4281 8921,4308 8867,4315 8847,4315 8833,4302 8827,4288 8827,4268 8833,4248 8847,4227 8894,4187 8948,4140 9015,4106 9103,4079 9197,4039 9258,4012 9319,3985 9319,3985 "
         id="polygon4002-1"
         style="fill:#ffffff;fill-opacity:1;fill-rule:nonzero" />
      <path
         class="fil3"
         d="m 421.93349,136.01666 -6.4404,6.06327 -6.06327,5.65711 -5.27997,4.87382 -4.87382,4.29361 -4.49667,3.71338 -3.91646,2.9301 -3.51032,2.34987 -3.13316,1.76967 -1.76966,-0.58023 4.87381,-2.55295 4.87382,-2.93009 4.69976,-3.71339 4.69975,-3.91646 4.69976,-4.2936 5.07689,-4.49669 5.0769,-4.69974 5.48304,-4.49669 0,0 z m -82.50694,-11.72037 6.06327,6.84655 5.27997,6.06327 4.69976,5.65711 4.29363,4.87382 3.51033,4.49669 2.93011,4.11954 2.14682,3.71337 1.76967,3.13318 -0.78329,1.76965 -2.14683,-5.07689 -2.93011,-4.87382 -3.51033,-4.87383 -3.91649,-4.69974 -4.11956,-4.87382 -4.2936,-5.0769 -4.49667,-5.48304 -4.49668,-5.65711 0,0 z m 14.65048,-7.04963 4.11955,8.00699 3.71341,7.22368 3.33627,6.44043 2.93011,5.86017 2.34989,5.27998 1.94374,4.49668 1.36352,4.11954 0.98637,3.51032 -1.16043,1.56658 -0.37713,-2.72704 -0.58024,-2.72701 -1.76968,-5.48304 -2.34988,-5.48305 -2.55297,-5.6571 -2.93013,-5.65713 -3.13318,-6.06325 -2.9301,-6.06327 -2.93013,-6.64348 0,0 z m 25.21055,-4.11953 0.20306,4.49667 0.20309,4.29361 0,4.2936 0,3.91646 0.20308,3.71339 0,3.5103 0,3.51031 -0.20308,3.13318 0,2.93009 -0.20309,2.72702 -0.37713,5.07689 -0.37715,4.11954 -0.78328,3.51031 -1.76966,0.98638 1.56658,-5.48306 0.7833,-5.48305 0.58021,-6.06325 0,-6.06327 0,-6.44041 0,-6.64347 0,-7.04963 0.20307,-7.04964 0,0 z m 24.42711,7.42676 -1.94372,4.29361 -1.76965,3.91646 -1.76966,3.91645 -1.5666,3.51033 -3.13316,6.64348 -2.93011,5.86018 -2.55294,5.07689 -2.55295,4.2936 -2.34988,3.51031 -2.14679,2.93009 -1.94374,0 3.71338,-4.11952 3.33625,-4.69976 2.93009,-5.07689 2.72701,-5.65713 2.72704,-5.6571 2.72701,-6.06327 3.13316,-6.26633 3.33624,-6.4404 0,0 z m 29.91016,35.77036 -4.29359,1.56658 -4.11954,1.56658 -7.62985,2.72704 -7.04963,2.34986 -6.06327,1.94373 -5.6571,1.76966 -4.69976,1.16043 -4.2936,0.7833 -3.51031,0.37713 -1.36351,-1.16043 2.72701,-0.20307 2.72703,-0.20308 5.65711,-0.98637 5.6571,-1.36351 6.06327,-1.76966 6.06327,-2.1468 6.26633,-2.14679 6.64347,-2.34988 6.84657,-1.94374 0,0 z m -2.1468,40.06396 -4.49668,-1.36351 -4.11953,-1.36351 -4.11954,-1.36351 -3.71339,-1.16043 -3.51031,-1.36352 -3.33624,-1.16044 -3.13316,-0.98635 -3.13318,-1.16044 -2.727,-0.98637 -2.55297,-1.16043 -4.49668,-1.94373 -3.91646,-1.94372 -2.93009,-1.76966 -0.37713,-1.94373 4.49665,3.13317 5.07692,2.72701 5.48304,2.55296 5.65712,2.1468 6.06325,1.94373 6.44041,2.14679 6.4404,2.34989 6.84655,2.72701 0,0 z m -12.12653,17.40649 -7.04962,-5.48305 -6.44041,-5.07689 -5.65712,-4.49667 -5.07687,-4.11956 -4.29362,-3.91644 -3.71337,-3.33626 -2.93011,-3.13316 -2.1468,-2.72702 0.37715,-1.94373 3.13316,4.49669 3.71339,4.2936 4.49667,4.11953 4.69976,3.91647 4.87382,4.11953 5.27997,4.11954 5.48305,4.2936 5.27997,4.87382 0,0 z m 16.42014,-36.35057 -4.69975,-0.20307 -4.29361,0 -4.2936,0 -3.91646,-0.20308 -3.71339,0 -3.51031,0 -3.5103,-0.20307 -3.13318,-0.20308 -2.93009,-0.20307 -2.72701,-0.20308 -4.87382,-0.58022 -4.29362,-0.58021 -3.51029,-0.98637 -0.7833,-1.76966 5.27997,1.76966 5.6571,1.16043 5.8602,0.58022 6.06325,0.37714 6.4404,0.20307 6.84657,0.20308 6.84655,0.20307 7.2237,0.58023 0,0 z"
         id="path4004-7"
         inkscape:connector-curvature="0"
         style="fill:#ffffff;fill-opacity:1;fill-rule:evenodd" />
      <path
         id="polygon3986-0"
         d="m 236.98925,225.54405 2.14681,0.98638 1.94373,1.3635 1.97273,1.36351 1.94372,1.56658 3.13318,3.71339 1.3635,2.14681 1.18945,2.34986 0.95734,2.34988 0.7833,2.72702 0.58023,2.9591 0.40615,2.93009 -1.97275,0 -1.94372,0 -4.49668,0 -0.37714,-3.91646 -0.98637,-3.5103 -1.56658,-3.33625 -1.94372,-2.72702 -2.75603,-2.34988 -3.13318,-1.56658 -3.51029,-1.18943 -2.14681,-0.17408 -2.14681,-0.20307 -2.14679,0.20307 -1.97275,0.37715 -1.74064,0.58021 -1.76965,0.98637 -3.13318,2.14679 -2.34987,2.55296 -1.94373,3.13318 -1.36351,3.10415 -0.78328,2.9591 -0.20309,2.93009 -3.13316,-0.20307 -1.16044,0 -1.16043,0 -0.78328,0 -0.60924,0 -0.37714,0 -0.20307,0 0,-39.10658 0,0 7.42676,0 0,0.20307 0,0.37713 0,0.7833 0,0.98638 0,1.16043 0,1.39251 0,3.10416 0,3.13316 0,3.33626 0,2.93009 0,1.16043 0,0.98637 1.18945,-0.78329 1.3635,-0.98638 1.56659,-1.16043 1.94373,-1.18943 2.34988,-0.95736 2.93009,-0.7833 3.51031,-0.40615 4.32261,-0.17406 2.14679,0.17406 2.34989,0.40615 2.1468,0.37715 z"
         style="fill:#ffffff;fill-rule:nonzero"
         inkscape:connector-curvature="0" />
      <polygon
         transform="matrix(0.02901082,0,0,0.02901082,67.072193,73.846772)"
         class="fil2"
         points="7897,6000 7769,6040 7627,6074 7465,6081 7297,6074 7156,6040 7034,6000 6926,5939 6839,5872 6771,5798 6711,5717 6670,5636 6630,5555 6610,5474 6589,5400 6583,5333 6576,5272 6576,5232 6576,5198 6576,5191 6576,5191 6899,5198 6899,5205 6893,5225 6893,5252 6899,5292 6899,5346 6913,5393 6926,5454 6947,5515 6974,5575 7007,5629 7054,5683 7108,5730 7176,5777 7250,5811 7344,5831 7452,5845 7553,5838 7647,5818 7728,5791 7796,5750 7850,5697 7897,5643 7930,5589 7964,5521 7984,5461 7998,5407 8011,5346 8011,5299 8018,5258 8018,5225 8018,5205 8018,5191 8341,5198 8341,5205 8341,5232 8341,5279 8341,5333 8328,5400 8315,5474 8288,5555 8254,5636 8213,5723 8153,5804 8085,5878 7998,5946 "
         id="polygon3988-6"
         style="fill:#ffffff;fill-rule:nonzero" />
      <polygon
         transform="matrix(0.02901082,0,0,0.02901082,64.781033,73.585374)"
         class="fil2"
         points="8860,5393 8948,5326 9049,5265 9170,5225 9312,5198 9480,5184 9642,5198 9784,5225 9912,5272 10013,5326 10100,5393 10174,5467 10228,5548 10275,5629 10309,5717 10336,5798 10350,5872 10363,5939 10370,5993 10370,6040 10370,6067 10370,6074 10370,6074 10046,6074 10046,6067 10046,6047 10046,6013 10046,5973 10040,5926 10033,5872 10019,5811 9999,5757 9972,5697 9932,5636 9891,5582 9837,5535 9770,5494 9689,5461 9602,5434 9494,5427 9386,5434 9292,5447 9218,5481 9150,5521 9089,5568 9049,5622 9009,5683 8982,5744 8961,5804 8948,5865 8934,5919 8928,5973 8928,6013 8928,6047 8928,6067 8928,6074 8598,6074 8598,6060 8598,6033 8598,5986 8604,5932 8618,5865 8631,5791 8651,5710 8685,5629 8732,5548 8786,5467 "
         id="polygon3990-4"
         style="fill:#ffffff;fill-rule:nonzero" />
      <polygon
         transform="matrix(0.02901082,0,0,0.02901082,63.615453,74.051606)"
         class="fil2"
         points="15168,5319 15269,5265 15390,5218 15532,5191 15700,5184 15862,5191 16003,5218 16131,5265 16232,5319 16320,5387 16394,5461 16448,5542 16495,5629 16529,5710 16556,5791 16569,5865 16583,5932 16590,5986 16590,6033 16590,6060 16590,6074 16590,6074 16266,6067 16266,6060 16266,6040 16266,6006 16266,5966 16259,5919 16253,5865 16239,5811 16219,5750 16192,5690 16152,5629 16111,5575 16057,5528 15990,5488 15909,5454 15821,5427 15714,5420 15606,5427 15511,5440 15437,5474 15370,5515 15309,5562 15269,5616 15228,5676 15201,5737 15181,5798 15161,5858 15154,5912 15147,5966 15147,6006 15147,6040 15147,6060 15147,6067 14817,6067 14817,6054 14817,6027 14817,5986 14824,5926 14831,5858 14851,5784 14871,5703 14905,5622 14952,5542 15006,5461 15080,5387 "
         id="polygon3992-2"
         style="fill:#ffffff;fill-rule:nonzero" />
      <polygon
         transform="matrix(0.02901082,0,0,0.02901082,63.615453,74.051606)"
         class="fil2"
         points="11441,5804 11515,5818 11589,5818 11664,5818 11731,5798 11792,5777 11852,5750 11960,5676 12041,5582 12108,5481 12156,5373 12182,5265 12189,5171 12297,5171 12337,5171 12378,5171 12405,5171 12425,5171 12439,5171 12445,5171 12445,6519 12445,6519 12189,6519 12189,6519 12189,6498 12189,6471 12189,6438 12189,6397 12189,6357 12189,6249 12189,6135 12189,6027 12189,5926 12189,5885 12189,5845 12149,5878 12102,5912 12048,5953 11980,5986 11899,6020 11798,6047 11677,6067 11529,6074 11455,6067 11374,6054 11300,6033 11226,6006 11151,5973 11077,5932 11017,5885 10949,5831 10842,5703 10794,5629 10754,5548 10720,5461 10693,5373 10673,5272 10660,5171 10727,5171 10794,5171 10949,5171 10963,5299 10996,5427 11050,5535 11118,5629 11212,5710 11320,5771 "
         id="polygon3994-6"
         style="fill:#ffffff;fill-rule:nonzero" />
      <polygon
         transform="matrix(0.02901082,0,0,0.02901082,63.615453,74.051606)"
         class="fil2"
         points="14608,5184 14608,5420 14602,5420 14588,5420 14568,5420 14541,5420 14507,5420 14467,5420 14413,5420 14359,5420 14231,5420 14076,5420 13901,5420 13705,5420 13611,5427 13523,5447 13449,5481 13389,5521 13335,5568 13288,5629 13247,5683 13220,5750 13173,5872 13160,5926 13153,5973 13146,6020 13139,6054 13139,6074 13139,6081 12816,6074 12816,6067 12816,6040 12816,5993 12829,5939 12836,5872 12856,5791 12883,5710 12924,5629 12964,5548 13025,5467 13099,5393 13180,5319 13281,5265 13402,5218 13537,5191 13692,5184 13847,5184 13988,5184 14110,5184 14211,5184 14298,5184 14373,5184 14433,5184 14487,5184 14521,5184 14554,5184 14575,5184 14588,5184 14608,5184 14608,5184 "
         id="polygon3996-9"
         style="fill:#ffffff;fill-rule:nonzero" />
      <polygon
         transform="matrix(0.02901082,0,0,0.02901082,63.615453,74.051606)"
         class="fil5"
         points="15754,6060 15714,6067 15680,6060 15639,6054 15585,6013 15545,5953 15532,5919 15532,5878 15532,5838 15545,5804 15585,5744 15639,5703 15680,5697 15714,5690 15754,5697 15788,5703 15848,5744 15889,5804 15895,5838 15902,5878 15902,5878 15895,5919 15889,5953 15848,6013 15788,6054 "
         id="polygon4006-8"
         style="fill:#ffffff;fill-rule:nonzero" />
      <polygon
         transform="matrix(0.02901082,0,0,0.02901082,64.781033,73.585374)"
         class="fil5"
         points="9561,6067 9527,6074 9494,6081 9453,6074 9420,6067 9359,6027 9319,5966 9312,5932 9305,5892 9312,5851 9319,5818 9359,5757 9420,5717 9453,5710 9494,5703 9527,5710 9561,5717 9622,5757 9662,5818 9676,5851 9676,5892 9676,5892 9676,5932 9662,5966 9622,6027 "
         id="polygon4008-5"
         style="fill:#ffffff;fill-rule:nonzero" />
      <polygon
         transform="matrix(0.02901082,0,0,0.02901082,64.781033,73.585374)"
         class="fil5"
         points="10848,3513 10808,3574 10754,3614 10713,3628 10680,3628 10639,3628 10606,3614 10545,3574 10505,3513 10498,3480 10491,3439 10498,3405 10505,3372 10545,3311 10606,3271 10639,3257 10680,3257 10713,3257 10754,3271 10808,3311 10848,3372 10862,3405 10862,3439 10862,3439 10862,3480 "
         id="polygon4010-8"
         style="fill:#ffffff;fill-opacity:1;fill-rule:nonzero" />
    </g>
  </g>
</svg>
